<?xml version="1.0" encoding="utf-8"?>
<!-- Generator: Adobe Illustrator 25.4.1, SVG Export Plug-In . SVG Version: 6.00 Build 0)  -->
<svg version="1.1" xmlns="http://www.w3.org/2000/svg" xmlns:xlink="http://www.w3.org/1999/xlink" x="0px" y="0px"
	 viewBox="0 0 221.7 183.4" style="enable-background:new 0 0 221.7 183.4;" xml:space="preserve">
<style type="text/css">
	.st0{display:none;}
	.st1{display:inline;fill:#FFFFFF;}
	.st2{display:inline;}
	.st3{fill:#FDB913;}
	.st4{display:inline;fill:#0869C8;}
	.st5{fill:#FFFFFF;}
	.st6{fill:#126CC3;}
	.st7{fill:#FDBE3A;}
</style>
<g id="Component_21_1" class="st0">
	<path id="Path_1170" class="st1" d="M215.8,30.2l-7.7-2.2c0,0-0.1,0-0.1,0L120,2.7c-4.8-1.2-9.9-1.2-14.8,0L16.9,27.5l-9.8,2.7
		c-0.1,0-0.3,0.1-0.4,0.1l0,0c-3.2,1-5.3,4-5.3,7.3v108.6c0,3.6,2.4,6.6,5.9,7.5L15,156c0,0,0.1,0,0.1,0l88.1,25.3
		c4.9,1.2,9.9,1.2,14.8,0l88.3-24.9l9.8-2.7c0.1,0,0.3-0.1,0.4-0.1l0,0l0,0c3.2-1,5.3-4,5.3-7.3V37.7
		C221.7,34.1,219.3,31,215.8,30.2z"/>
	<g id="Group_428" class="st2">
		<g id="Group_427" transform="translate(0)">
			<path id="Path_1197" class="st3" d="M109.9,183.4L109.9,183.4c-2.6,0-5.2-0.3-7.8-0.9L6.8,154.8c-4-1-6.8-4.6-6.8-8.7V37.2
				c0-3.9,2.5-7.3,6.1-8.5c0.1,0,0.2-0.1,0.4-0.1l9.8-2.7l87.9-25c5.1-1.2,10.3-1.2,15.4,0L215,28.5c4,1,6.8,4.6,6.8,8.7v108.9
				c0,3.8-2.4,7.2-6,8.5l-0.2,0.1c-0.1,0-0.2,0.1-0.3,0.1l-9.8,2.8l-87.9,25C115.1,183.1,112.5,183.4,109.9,183.4z M111.8,2.5
				c-2.3,0-4.7,0.2-6.9,0.8L17,28.2L7.3,31C7.1,31,7,31,7,31c-2.7,0.9-4.5,3.4-4.5,6.2v108.9c0,3,2,5.6,4.9,6.3l7.9,2.3l87.6,25.3
				c2.3,0.6,4.7,0.9,7.1,0.8c2.3,0,4.7-0.2,6.9-0.8l87.9-25l10.1-2.8c2.7-0.9,4.4-3.4,4.4-6.2V37.2c0-3-2-5.6-4.9-6.3l-7.9-2.3
				L118.9,3.3C116.6,2.7,114.2,2.4,111.8,2.5L111.8,2.5z"/>
		</g>
	</g>
	<path id="Path_1198" class="st4" d="M206.1,35.5l-7-2c0,0-0.1,0-0.1,0l-80.5-23c-4.4-1.1-9-1.1-13.5,0L24.4,33.1l-8.9,2.5
		c-0.1,0-0.2,0.1-0.4,0.1l0,0c-2.9,0.9-4.8,3.6-4.9,6.7V141c0,3.2,2.2,6,5.4,6.8l7,2c0,0,0.1,0,0.1,0l80.5,23c4.4,1.1,9,1.1,13.5,0
		l80.7-22.6l8.9-2.5c0.1,0,0.2-0.1,0.4-0.1l0,0l0,0c2.9-0.9,4.8-3.6,4.9-6.7V42.3C211.5,39.1,209.3,36.3,206.1,35.5z M162,139.9
		h-16.1c-0.9-0.1-1.7-0.5-2.3-1.2l-1.2-1.8c-9.9-14.7-20.6-22.6-31.7-22.6c-11.2,0-22,8.1-31.9,23.1l-0.1,0.1l-0.2,0.3l0,0l-0.6,0.9
		c-0.5,0.7-1.4,1.2-2.3,1.2H59.9c-0.8,0-1.1-0.5-0.6-1.2c0,0,2.3-3,2.4-3c15.2-19.1,31.8-29.6,49.3-29.6s34.1,10.5,49.3,29.6
		c0.1,0.1,2.4,3,2.4,3C163.1,139.4,162.8,139.9,162,139.9z M166.5,74.6l-53.2,26.8c-1.5,0.6-3.1,0.6-4.6,0L55.4,74.6
		c-2.5-1.3-2.3-2.3,0.5-2.3h16.3c1.7,0.1,3.3,0.5,4.8,1.2l31.6,16.9c1.4,0.7,3.1,0.7,4.5,0l31.6-16.9c1.5-0.7,3.1-1.1,4.8-1.2h16.3
		C168.7,72.3,169,73.4,166.5,74.6L166.5,74.6z M103.4,74.6c-0.3-4.1,2.9-7.7,7-8c4.1-0.3,7.7,2.9,8,7c0.3,4.1-2.9,7.7-7,8
		c-0.2,0-0.3,0-0.5,0C106.9,81.7,103.6,78.6,103.4,74.6L103.4,74.6z M122.1,67.5c-3.6-6.1-11.4-8.1-17.5-4.5
		c-1.9,1.1-3.4,2.7-4.5,4.5H48.8l44.9-3.6L53.1,53.1L96,60.4L64.9,41.3l35.4,16.3L82.4,32.8l23.4,23L102.1,29l8.9,26.4l11.7-26.1
		l-5.3,26.8l26.4-21.9l-21,23.9l37.4-14.5l-33.6,17.5l43.8-5.3l-42,8.6l44.8,3.2L122.1,67.5z"/>
</g>
<g id="Layer_2">
	<g>
		<g>
			<path class="st5" d="M211.4,29.4L119.7,2.8c-4.3-1.2-11.4-1.2-15.7,0l-84.4,24l-9.4,2.6c-0.2,0-0.3,0.1-0.4,0.1
				c-4.2,1.4-7.1,5.3-7.1,9.8V144c0,4.8,3.2,8.9,7.7,10l91.7,26.5c2.2,0.6,5,1,7.9,1c2.9,0,5.7-0.3,7.8-0.9l84.4-24l9.5-2.7l0.6-0.2
				c4.1-1.4,6.9-5.4,6.9-9.7V39.3C219.1,34.6,215.9,30.5,211.4,29.4z"/>
			<g>
				<g>
					<path class="st6" d="M116.4,11.6c-3-0.8-6.2-0.9-9.1,0c-7.8,2.2-28.2,7.9-81.1,22.7l-8.7,2.4c-0.1,0-0.2,0.1-0.3,0.1l0,0l0,0
						l-1.9,0.6c-1.7,0.5-2.8,2.1-2.8,3.9v101.3c0,1.9,1.5,3.2,3.4,3.7c7,1.9,9.5,2.7,89.8,25.4c3,0.8,6.1,0.8,9.1,0
						c105-29.4,88.2-24.6,92.3-26c1.6-0.5,2.6-2,2.6-3.6V40.9c0-1.7-1.3-3.2-2.9-3.7C205.6,36.9,205,36.8,116.4,11.6z"/>
				</g>
			</g>
			<path class="st5" d="M165.3,75c2.5-1.2,2.2-2.3-0.5-2.3l-16,0c-1.4,0-3.5,0.5-4.7,1.2l-30.9,16.6c-1.2,0.7-3.2,0.7-4.4,0
				L77.8,73.9c-1.2-0.7-3.3-1.2-4.7-1.2l-16,0c-2.8,0-3,1-0.5,2.3l52.1,26.3c1.2,0.6,3.2,0.6,4.5,0L165.3,75z"/>
			<path class="st5" d="M161.5,137.8c0,0-2.3-2.9-2.3-3c-14.9-18.7-31.2-29-48.3-29c-17.1,0-33.4,10.3-48.3,29c-0.1,0.1-2.3,3-2.3,3
				c-0.5,0.6-0.2,1.2,0.6,1.2h15.4c0.8,0,1.8-0.5,2.2-1.2l0.6-0.8h0c0.1-0.1,0.1-0.2,0.2-0.3l0.1-0.1c9.8-14.6,20.3-22.6,31.3-22.6
				c10.9,0,21.3,7.8,31,22.2l1.1,1.7c0.4,0.7,1.4,1.2,2.2,1.2h15.8C161.7,138.9,162,138.4,161.5,137.8z"/>
			<g>
				<path class="st5" d="M100.3,68c2-3.7,6.1-6.2,10.8-6.2c4.7,0,8.8,2.5,10.8,6.2h49.9l-43.9-3.1l41.2-8.4l-42.9,5.2l32.9-17.2
					l-36.7,14.2L143,35.4l-25.8,21.4l5.2-26.3l-11.4,25.6l-8.7-25.8l3.6,26.3L82.9,34l17.5,24.3L65.8,42.3L96.3,61l-42.1-7.1
					l39.8,10.6l-44,3.6H100.3z"/>
			</g>
			<path class="st5" d="M118.3,74.9c0,3.8-3.3,6.9-7.4,6.9c-4.1,0-7.4-3.1-7.4-6.9c0-3.8,3.3-6.9,7.4-6.9
				C115,68,118.3,71.1,118.3,74.9z"/>
		</g>
		<path class="st7" d="M213.3,28.2l-93.5-27c-4.3-1.3-11.7-1.3-16,0L17.8,25.5l-9.6,2.7c-0.2,0-0.3,0.1-0.4,0.1
			c-4.3,1.4-7.2,5.4-7.2,10V145c0,4.9,3.3,9.1,7.9,10.2l93.5,27c2.2,0.6,5.1,1,8.1,1c3,0,5.8-0.3,7.9-0.9l86.1-24.4l9.7-2.7l0.6-0.2
			c4.2-1.5,7-5.5,7-9.9V38.3C221.2,33.5,217.9,29.3,213.3,28.2z M211.8,33.8c2,0.5,3.5,2.4,3.5,4.5V145c0,2-1.3,3.8-3.1,4.4
			l-96,27.2c-3.3,0.9-9.5,0.9-12.8,0l-85.9-24.8l-7.6-2.2c-2-0.5-3.5-2.4-3.5-4.5V38.3c0-2,1.3-3.8,3.1-4.4l96-27.2
			c1.6-0.5,3.9-0.7,6.3-0.7c2.5,0,4.8,0.3,6.5,0.8l85.9,24.9L211.8,33.8z"/>
	</g>
</g>
</svg>
